<svg width="34" height="25" viewBox="0 0 34 25" fill="none" xmlns="http://www.w3.org/2000/svg">
<path d="M18.6614 5.79659C18.6614 7.34353 19.1363 8.65932 20.0862 9.74395C21.5308 11.3798 24.3211 11.5754 25.9439 11.2553C26.6167 14.6871 23.3712 19.0612 19.1759 20.9459L22.4016 25C28.7342 22.2973 34.948 16.074 33.8794 8.23257C33.2066 3.27169 30.0205 0 25.5085 0C23.5296 0 21.887 0.515646 20.6007 1.56472C19.2946 2.6138 18.6614 4.01849 18.6614 5.79659ZM0 5.79659C0 7.34353 0.474945 8.65932 1.42484 9.74395C2.86946 11.3798 5.65976 11.5754 7.28249 11.2553C7.95533 14.6871 4.70987 19.0612 0.514526 20.9459L3.74019 25C10.0728 22.2973 16.2867 16.074 15.218 8.23257C14.5452 3.27169 11.3591 0 6.84712 0C4.86819 0 3.22567 0.515646 1.93936 1.56472C0.633259 2.6138 0 4.01849 0 5.79659Z" fill="#A08F36"/>
</svg>
