<svg width="72" height="72" viewBox="0 0 72 72" fill="none" xmlns="http://www.w3.org/2000/svg">
<path d="M31.5 41.25V51.75C31.5 52.2141 31.6844 52.6592 32.0126 52.9874C32.3408 53.3156 32.7859 53.5 33.25 53.5H43.75C44.2141 53.5 44.6592 53.3156 44.9874 52.9874C45.3156 52.6592 45.5 52.2141 45.5 51.75V41.25C45.5 40.7859 45.3156 40.3408 44.9874 40.0126C44.6592 39.6844 44.2141 39.5 43.75 39.5H33.25C32.7859 39.5 32.3408 39.6844 32.0126 40.0126C31.6844 40.3408 31.5 40.7859 31.5 41.25ZM35 50V43H42V50H35Z" fill="#A08F36"/>
<path d="M10.5 8C10.2435 8.0001 9.99015 8.05658 9.7579 8.16545C9.52564 8.27432 9.32016 8.43291 9.156 8.63L0.406 19.13C0.143847 19.4444 0.000184182 19.8407 0 20.25V25.5C0 28.608 1.351 31.4045 3.5 33.326V62.25C3.5 62.7141 3.68437 63.1592 4.01256 63.4874C4.34075 63.8156 4.78587 64 5.25 64H50.75C51.2141 64 51.6592 63.8156 51.9874 63.4874C52.3156 63.1592 52.5 62.7141 52.5 62.25V33.326C54.649 31.401 56 28.608 56 25.5V20.25V20.187C56 19.872 56 19.62 55.594 19.13L46.844 8.63C46.6798 8.43291 46.4744 8.27432 46.2421 8.16545C46.0098 8.05658 45.7565 8.0001 45.5 8H10.5ZM10.5 32.5C8.64348 32.5 6.86301 31.7625 5.55025 30.4497C4.2375 29.137 3.5 27.3565 3.5 25.5V22H17.5V25.5C17.5 27.3565 16.7625 29.137 15.4497 30.4497C14.137 31.7625 12.3565 32.5 10.5 32.5ZM28 32.5C26.1435 32.5 24.363 31.7625 23.0503 30.4497C21.7375 29.137 21 27.3565 21 25.5V22H35V25.5C35 27.3565 34.2625 29.137 32.9497 30.4497C31.637 31.7625 29.8565 32.5 28 32.5ZM45.5 32.5C43.6435 32.5 41.863 31.7625 40.5503 30.4497C39.2375 29.137 38.5 27.3565 38.5 25.5V22H52.5V25.5C52.5 27.3565 51.7625 29.137 50.4497 30.4497C49.137 31.7625 47.3565 32.5 45.5 32.5ZM10.5 60.5H7V35.405C9.20605 36.1869 11.6102 36.2086 13.83 35.4666C16.0498 34.7245 17.9577 33.2614 19.25 31.31C20.2078 32.7535 21.5082 33.9373 23.035 34.7557C24.5619 35.5741 26.2677 36.0016 28 36C29.7327 36.0012 31.4386 35.5732 32.9655 34.7541C34.4924 33.9351 35.7926 32.7506 36.75 31.3065C38.0423 33.2579 39.9502 34.721 42.17 35.4631C44.3898 36.2051 46.794 36.1835 49 35.4015V60.5H28V41.25C28 40.7859 27.8156 40.3408 27.4874 40.0126C27.1593 39.6844 26.7141 39.5 26.25 39.5H12.25C11.7859 39.5 11.3408 39.6844 11.0126 40.0126C10.6844 40.3408 10.5 40.7859 10.5 41.25V60.5ZM17.99 18.5H5.488L11.319 11.5H20.321L17.99 18.5ZM34.321 18.5H21.679L24.01 11.5H31.99L34.321 18.5ZM38.01 18.5L35.679 11.5H44.681L50.5155 18.5H38.01ZM14 60.5V43H24.5V60.5H14Z" fill="#A08F36"/>
</svg>
