<svg width="72" height="72" viewBox="0 0 72 72" fill="none" xmlns="http://www.w3.org/2000/svg">
<path d="M26.064 22.6378C26.8859 22.6378 27.6741 22.3113 28.2553 21.7302C28.8364 21.149 29.1629 20.3608 29.1629 19.5389C29.1629 18.717 28.8364 17.9288 28.2553 17.3476C27.6741 16.7664 26.8859 16.4399 26.064 16.4399C25.2421 16.4399 24.4539 16.7664 23.8727 17.3476C23.2916 17.9288 22.9651 18.717 22.9651 19.5389C22.9651 20.3608 23.2916 21.149 23.8727 21.7302C24.4539 22.3113 25.2421 22.6378 26.064 22.6378Z" fill="#A08F36"/>
<path d="M48.3723 50.3922V30.5382H48.7181C52.0382 30.5382 53.4027 26.2737 50.6886 24.3515L28.9347 8.91444C28.0965 8.31956 27.0941 8 26.0663 8C25.0384 8 24.036 8.31956 23.1979 8.91444L1.44024 24.3515C-1.26273 26.2737 0.0906187 30.5382 3.41077 30.5382H3.75654V50.3922C1.52204 51.8273 0.0385667 54.3333 0.0385667 57.1849V62.141C0.0385667 62.634 0.234424 63.1069 0.583052 63.4555C0.93168 63.8041 1.40452 64 1.89756 64H50.2313C50.7243 64 51.1971 63.8041 51.5458 63.4555C51.8944 63.1069 52.0903 62.634 52.0903 62.141V57.1849C52.0903 54.3333 50.6105 51.8273 48.3723 50.3959V50.3922ZM25.3506 11.9483C25.5598 11.8001 25.8099 11.7205 26.0663 11.7205C26.3227 11.7205 26.5728 11.8001 26.782 11.9483L47.7477 26.8202H4.38488L25.3506 11.9483ZM44.6543 30.5382V49.1504C44.4489 49.1351 44.2431 49.1277 44.0371 49.1281H37.2183V30.5382H44.6543ZM7.47452 49.1504V30.5382H14.9105V49.1281H8.09542C7.88825 49.1276 7.68113 49.1351 7.47452 49.1504ZM8.09542 52.8461H44.0371C46.4315 52.8461 48.3723 54.7868 48.3723 57.1849V60.282H3.75654V57.1849C3.75654 54.7868 5.70105 52.8461 8.09542 52.8461ZM24.2054 49.1281H18.6285V30.5382H24.2054V49.1281ZM27.9234 49.1281V30.5382H33.5004V49.1281H27.9234Z" fill="#A08F36"/>
</svg>
