<svg width="72" height="72" viewBox="0 0 72 72" fill="none" xmlns="http://www.w3.org/2000/svg">
<path d="M14.4443 19.4872C14.4443 20.2488 14.1399 20.9793 13.5982 21.5178C13.0564 22.0564 12.3216 22.3589 11.5554 22.3589C10.7892 22.3589 10.0544 22.0564 9.51265 21.5178C8.97088 20.9793 8.66652 20.2488 8.66652 19.4872C8.66652 18.7255 8.97088 17.9951 9.51265 17.4565C10.0544 16.9179 10.7892 16.6154 11.5554 16.6154C12.3216 16.6154 13.0564 16.9179 13.5982 17.4565C14.1399 17.9951 14.4443 18.7255 14.4443 19.4872Z" fill="#A08F36"/>
<path d="M11.5554 30.9743C12.3216 30.9743 13.0564 30.6717 13.5982 30.1332C14.1399 29.5946 14.4443 28.8642 14.4443 28.1025C14.4443 27.3409 14.1399 26.6104 13.5982 26.0718C13.0564 25.5333 12.3216 25.2307 11.5554 25.2307C10.7892 25.2307 10.0544 25.5333 9.51265 26.0718C8.97088 26.6104 8.66652 27.3409 8.66652 28.1025C8.66652 28.8642 8.97088 29.5946 9.51265 30.1332C10.0544 30.6717 10.7892 30.9743 11.5554 30.9743Z" fill="#A08F36"/>
<path d="M14.4443 36.718C14.4443 37.4796 14.1399 38.2101 13.5982 38.7487C13.0564 39.2872 12.3216 39.5898 11.5554 39.5898C10.7892 39.5898 10.0544 39.2872 9.51265 38.7487C8.97088 38.2101 8.66652 37.4796 8.66652 36.718C8.66652 35.9563 8.97088 35.2259 9.51265 34.6873C10.0544 34.1488 10.7892 33.8462 11.5554 33.8462C12.3216 33.8462 13.0564 34.1488 13.5982 34.6873C14.1399 35.2259 14.4443 35.9563 14.4443 36.718Z" fill="#A08F36"/>
<path d="M14.4443 45.3333C14.4443 46.095 14.1399 46.8254 13.5982 47.364C13.0564 47.9026 12.3216 48.2051 11.5554 48.2051C10.7892 48.2051 10.0544 47.9026 9.51265 47.364C8.97088 46.8254 8.66652 46.095 8.66652 45.3333C8.66652 44.5717 8.97088 43.8412 9.51265 43.3027C10.0544 42.7641 10.7892 42.4615 11.5554 42.4615C12.3216 42.4615 13.0564 42.7641 13.5982 43.3027C14.1399 43.8412 14.4443 44.5717 14.4443 45.3333Z" fill="#A08F36"/>
<path d="M11.5554 56.8205C12.3216 56.8205 13.0564 56.5179 13.5982 55.9794C14.1399 55.4408 14.4443 54.7103 14.4443 53.9487C14.4443 53.1871 14.1399 52.4566 13.5982 51.918C13.0564 51.3795 12.3216 51.0769 11.5554 51.0769C10.7892 51.0769 10.0544 51.3795 9.51265 51.918C8.97088 52.4566 8.66652 53.1871 8.66652 53.9487C8.66652 54.7103 8.97088 55.4408 9.51265 55.9794C10.0544 56.5179 10.7892 56.8205 11.5554 56.8205Z" fill="#A08F36"/>
<path d="M31.7776 48.2051C32.5438 48.2051 33.2786 47.9026 33.8204 47.364C34.3621 46.8254 34.6665 46.095 34.6665 45.3333C34.6665 44.5717 34.3621 43.8412 33.8204 43.3027C33.2786 42.7641 32.5438 42.4615 31.7776 42.4615C31.0114 42.4615 30.2766 42.7641 29.7349 43.3027C29.1931 43.8412 28.8887 44.5717 28.8887 45.3333C28.8887 46.095 29.1931 46.8254 29.7349 47.364C30.2766 47.9026 31.0114 48.2051 31.7776 48.2051Z" fill="#A08F36"/>
<path d="M40.4446 48.2051C41.2108 48.2051 41.9456 47.9026 42.4874 47.364C43.0291 46.8254 43.3335 46.095 43.3335 45.3333C43.3335 44.5717 43.0291 43.8412 42.4874 43.3027C41.9456 42.7641 41.2108 42.4615 40.4446 42.4615C39.6784 42.4615 38.9436 42.7641 38.4019 43.3027C37.8601 43.8412 37.5557 44.5717 37.5557 45.3333C37.5557 46.095 37.8601 46.8254 38.4019 47.364C38.9436 47.9026 39.6784 48.2051 40.4446 48.2051Z" fill="#A08F36"/>
<path d="M40.4446 39.5898C41.2108 39.5898 41.9456 39.2872 42.4874 38.7487C43.0291 38.2101 43.3335 37.4796 43.3335 36.718C43.3335 35.9563 43.0291 35.2259 42.4874 34.6873C41.9456 34.1488 41.2108 33.8462 40.4446 33.8462C39.6784 33.8462 38.9436 34.1488 38.4019 34.6873C37.8601 35.2259 37.5557 35.9563 37.5557 36.718C37.5557 37.4796 37.8601 38.2101 38.4019 38.7487C38.9436 39.2872 39.6784 39.5898 40.4446 39.5898Z" fill="#A08F36"/>
<path d="M34.6665 36.718C34.6665 37.4796 34.3621 38.2101 33.8204 38.7487C33.2786 39.2872 32.5438 39.5898 31.7776 39.5898C31.0114 39.5898 30.2766 39.2872 29.7349 38.7487C29.1931 38.2101 28.8887 37.4796 28.8887 36.718C28.8887 35.9563 29.1931 35.2259 29.7349 34.6873C30.2766 34.1488 31.0114 33.8462 31.7776 33.8462C32.5438 33.8462 33.2786 34.1488 33.8204 34.6873C34.3621 35.2259 34.6665 35.9563 34.6665 36.718Z" fill="#A08F36"/>
<path d="M40.4446 30.9743C41.2108 30.9743 41.9456 30.6717 42.4874 30.1332C43.0291 29.5946 43.3335 28.8642 43.3335 28.1025C43.3335 27.3409 43.0291 26.6104 42.4874 26.0718C41.9456 25.5333 41.2108 25.2307 40.4446 25.2307C39.6784 25.2307 38.9436 25.5333 38.4019 26.0718C37.8601 26.6104 37.5557 27.3409 37.5557 28.1025C37.5557 28.8642 37.8601 29.5946 38.4019 30.1332C38.9436 30.6717 39.6784 30.9743 40.4446 30.9743Z" fill="#A08F36"/>
<path d="M34.6665 28.1025C34.6665 28.8642 34.3621 29.5946 33.8204 30.1332C33.2786 30.6717 32.5438 30.9743 31.7776 30.9743C31.0114 30.9743 30.2766 30.6717 29.7349 30.1332C29.1931 29.5946 28.8887 28.8642 28.8887 28.1025C28.8887 27.3409 29.1931 26.6104 29.7349 26.0718C30.2766 25.5333 31.0114 25.2307 31.7776 25.2307C32.5438 25.2307 33.2786 25.5333 33.8204 26.0718C34.3621 26.6104 34.6665 27.3409 34.6665 28.1025Z" fill="#A08F36"/>
<path d="M31.7778 16.6154V14.4615C31.7778 12.7478 31.093 11.1043 29.874 9.89254C28.655 8.68077 27.0017 8 25.2778 8H6.5C4.77609 8 3.12279 8.68077 1.90381 9.89254C0.684819 11.1043 0 12.7478 0 14.4615V61.8462C0 63.0351 0.970667 64 2.16667 64H49.8333C50.408 64 50.9591 63.7731 51.3654 63.3692C51.7717 62.9652 52 62.4174 52 61.8462V23.0769C52 21.3632 51.3152 19.7197 50.0962 18.5079C48.8772 17.2962 47.2239 16.6154 45.5 16.6154H31.7778ZM4.33333 14.4615C4.33333 13.8903 4.56161 13.3425 4.96794 12.9385C5.37426 12.5346 5.92536 12.3077 6.5 12.3077H25.2778C25.8524 12.3077 26.4035 12.5346 26.8098 12.9385C27.2162 13.3425 27.4444 13.8903 27.4444 14.4615V16.6154H26.7222C24.9983 16.6154 23.345 17.2962 22.126 18.5079C20.907 19.7197 20.2222 21.3632 20.2222 23.0769V59.6923H4.33333V14.4615ZM33.2222 59.6923V55.3846H39V59.6923H33.2222ZM43.3333 53.2308C43.3333 52.6595 43.1051 52.1117 42.6987 51.7078C42.2924 51.3038 41.7413 51.0769 41.1667 51.0769H31.0556C30.4809 51.0769 29.9298 51.3038 29.5235 51.7078C29.1172 52.1117 28.8889 52.6595 28.8889 53.2308V59.6923H24.5556V23.0769C24.5556 22.5057 24.7838 21.9578 25.1902 21.5539C25.5965 21.15 26.1476 20.9231 26.7222 20.9231H45.5C46.0746 20.9231 46.6257 21.15 47.0321 21.5539C47.4384 21.9578 47.6667 22.5057 47.6667 23.0769V59.6923H43.3333V53.2308Z" fill="#A08F36"/>
</svg>
