<svg width="72" height="72" viewBox="0 0 72 72" fill="none" xmlns="http://www.w3.org/2000/svg">
<path d="M13.9955 33.0111C13.9955 33.8065 13.6795 34.5693 13.1171 35.1317C12.5547 35.6941 11.7919 36.0101 10.9965 36.0101C10.2011 36.0101 9.43831 35.6941 8.87588 35.1317C8.31346 34.5693 7.9975 33.8065 7.9975 33.0111C7.9975 32.2157 8.31346 31.4529 8.87588 30.8905C9.43831 30.3281 10.2011 30.0121 10.9965 30.0121C11.7919 30.0121 12.5547 30.3281 13.1171 30.8905C13.6795 31.4529 13.9955 32.2157 13.9955 33.0111Z" fill="#A08F36"/>
<path d="M20.993 36.0101C21.7884 36.0101 22.5512 35.6941 23.1136 35.1317C23.6761 34.5693 23.992 33.8065 23.992 33.0111C23.992 32.2157 23.6761 31.4529 23.1136 30.8905C22.5512 30.3281 21.7884 30.0121 20.993 30.0121C20.1976 30.0121 19.4348 30.3281 18.8724 30.8905C18.31 31.4529 17.994 32.2157 17.994 33.0111C17.994 33.8065 18.31 34.5693 18.8724 35.1317C19.4348 35.6941 20.1976 36.0101 20.993 36.0101Z" fill="#A08F36"/>
<path d="M13.9955 43.0077C13.9955 43.8031 13.6795 44.5659 13.1171 45.1283C12.5547 45.6907 11.7919 46.0067 10.9965 46.0067C10.2011 46.0067 9.43831 45.6907 8.87588 45.1283C8.31346 44.5659 7.9975 43.8031 7.9975 43.0077C7.9975 42.2123 8.31346 41.4495 8.87588 40.8871C9.43831 40.3246 10.2011 40.0087 10.9965 40.0087C11.7919 40.0087 12.5547 40.3246 13.1171 40.8871C13.6795 41.4495 13.9955 42.2123 13.9955 43.0077Z" fill="#A08F36"/>
<path d="M20.993 46.0067C21.7884 46.0067 22.5512 45.6907 23.1136 45.1283C23.6761 44.5659 23.992 43.8031 23.992 43.0077C23.992 42.2123 23.6761 41.4495 23.1136 40.8871C22.5512 40.3246 21.7884 40.0087 20.993 40.0087C20.1976 40.0087 19.4348 40.3246 18.8724 40.8871C18.31 41.4495 17.994 42.2123 17.994 43.0077C17.994 43.8031 18.31 44.5659 18.8724 45.1283C19.4348 45.6907 20.1976 46.0067 20.993 46.0067Z" fill="#A08F36"/>
<path d="M41.9861 55.0038C41.9861 55.7991 41.6701 56.562 41.1077 57.1244C40.5453 57.6868 39.7825 58.0028 38.9871 58.0028C38.1917 58.0028 37.4289 57.6868 36.8665 57.1244C36.3041 56.562 35.9881 55.7991 35.9881 55.0038C35.9881 54.2084 36.3041 53.4456 36.8665 52.8831C37.4289 52.3207 38.1917 52.0048 38.9871 52.0048C39.7825 52.0048 40.5453 52.3207 41.1077 52.8831C41.6701 53.4456 41.9861 54.2084 41.9861 55.0038Z" fill="#A08F36"/>
<path d="M38.9871 48.0059C39.3809 48.0059 39.7709 47.9284 40.1348 47.7776C40.4986 47.6269 40.8292 47.406 41.1077 47.1275C41.3862 46.8491 41.6071 46.5185 41.7578 46.1546C41.9085 45.7907 41.9861 45.4008 41.9861 45.0069C41.9861 44.6131 41.9085 44.2231 41.7578 43.8593C41.6071 43.4954 41.3862 43.1648 41.1077 42.8863C40.8292 42.6078 40.4986 42.3869 40.1348 42.2362C39.7709 42.0855 39.3809 42.0079 38.9871 42.0079C38.1917 42.0079 37.4289 42.3239 36.8665 42.8863C36.3041 43.4487 35.9881 44.2116 35.9881 45.0069C35.9881 45.8023 36.3041 46.5651 36.8665 47.1275C37.4289 47.69 38.1917 48.0059 38.9871 48.0059Z" fill="#A08F36"/>
<path d="M11.996 6C11.4657 6 10.9572 6.21064 10.5823 6.58559C10.2073 6.96054 9.99667 7.46908 9.99667 7.99933V14.0093H6.21793C5.68767 14.0093 5.17913 14.22 4.80419 14.5949C4.42924 14.9699 4.2186 15.4784 4.2186 16.0087V22.9583C2.94293 23.6423 1.87679 24.6596 1.13385 25.9018C0.39091 27.144 -0.000966846 28.5646 1.79135e-06 30.012V63.9927C1.79135e-06 64.5229 0.210646 65.0315 0.585593 65.4064C0.960541 65.7814 1.46908 65.992 1.99934 65.992H29.8221C29.8779 65.9969 29.9339 65.9996 29.99 66H49.9833C50.5136 66 51.0221 65.7894 51.3971 65.4144C51.772 65.0395 51.9827 64.5309 51.9827 64.0007V48.006C51.9827 43.2337 50.0869 38.6568 46.7124 35.2823C43.3378 31.9078 38.761 30.012 33.9887 30.012H31.9893C31.9893 27.141 30.4778 24.6258 28.2106 23.2143V16.0087C28.2106 15.4784 28 14.9699 27.625 14.5949C27.2501 14.22 26.7415 14.0093 26.2113 14.0093H21.9927V7.99933C21.9927 7.46908 21.782 6.96054 21.4071 6.58559C21.0321 6.21064 20.5236 6 19.9933 6H11.996ZM23.992 22.0147H8.21726V18.008H24.2119V22.0147H23.992ZM27.9907 61.9933H23.992V54.02C23.992 52.9595 23.5707 51.9424 22.8208 51.1925C22.0709 50.4426 21.0539 50.0213 19.9933 50.0213H11.996C10.9355 50.0213 9.91842 50.4426 9.16852 51.1925C8.41862 51.9424 7.99734 52.9595 7.99734 54.02V61.9933H3.99867V30.012C3.99867 28.9515 4.41996 27.9344 5.16985 27.1845C5.91975 26.4346 6.93682 26.0133 7.99734 26.0133H23.992C25.0525 26.0133 26.0696 26.4346 26.8195 27.1845C27.5694 27.9344 27.9907 28.9515 27.9907 30.012V61.9933ZM11.996 61.9933V54.02H19.9933V61.9933H11.996ZM47.984 62.0013H31.9893V34.0107H33.9887C37.7005 34.0107 41.2602 35.4852 43.8849 38.1098C46.5095 40.7344 47.984 44.2942 47.984 48.006V62.0013ZM17.994 14.0093H13.9953V9.99867H17.994V14.0093Z" fill="#A08F36"/>
</svg>
